<svg width="33" height="34" viewBox="0 0 33 34" fill="none" xmlns="http://www.w3.org/2000/svg">
<path d="M6.01582 29.8574L4.09082 27.9324L18.1846 13.8387C17.7721 12.8762 17.7148 11.7876 18.0127 10.573C18.3106 9.35846 18.9637 8.26992 19.9721 7.30742C21.1867 6.09284 22.5387 5.38242 24.0283 5.17617C25.5179 4.96992 26.7325 5.33659 27.6721 6.27617C28.6117 7.21576 28.9783 8.43034 28.7721 9.91992C28.5658 11.4095 27.8554 12.7616 26.6408 13.9762C25.6783 14.9845 24.5898 15.6376 23.3752 15.9355C22.1606 16.2335 21.0721 16.1762 20.1096 15.7637L18.3908 17.4824L28.8408 27.9324L26.9158 29.8574L16.4658 19.4762L6.01582 29.8574ZM10.0721 18.1012L5.94707 13.9762C4.70957 12.7387 4.09082 11.2605 4.09082 9.5418C4.09082 7.82305 4.70957 6.34492 5.94707 5.10742L14.4721 13.7012L10.0721 18.1012Z" fill="black"/>
</svg>
