<svg width="117" height="35" viewBox="0 0 117 35" fill="none" xmlns="http://www.w3.org/2000/svg">
<g id="Amazon_logo 2" clip-path="url(#clip0_124_6146)">
<path id="path8" fill-rule="evenodd" clip-rule="evenodd" d="M72.6325 27.3708C65.9159 32.3455 56.1806 34.9997 47.7986 34.9997C36.0458 34.9997 25.4652 30.6316 17.4606 23.3667C16.8317 22.7954 17.3952 22.0169 18.1498 22.4618C26.7884 27.5123 37.4696 30.5508 48.503 30.5508C55.9441 30.5508 64.1298 29.0037 71.6565 25.7934C72.7935 25.3081 73.7444 26.5417 72.6325 27.3708Z" fill="black"/>
<path id="path10" fill-rule="evenodd" clip-rule="evenodd" d="M75.424 24.1605C74.5687 23.0584 69.7489 23.6398 67.5854 23.8976C66.9264 23.9785 66.8257 23.4022 67.4194 22.9876C71.2582 20.2728 77.5572 21.0564 78.2918 21.9664C79.0263 22.8815 78.1006 29.2262 74.4933 32.2545C73.9398 32.7197 73.4116 32.4719 73.6581 31.8552C74.4681 29.8228 76.2844 25.2677 75.424 24.1605Z" fill="black"/>
<path id="path12" fill-rule="evenodd" clip-rule="evenodd" d="M67.7365 3.82199V1.18296C67.7365 0.783572 68.0384 0.515625 68.4006 0.515625H80.1585C80.5359 0.515625 80.8377 0.788628 80.8377 1.18296V3.44282C80.8327 3.82199 80.5157 4.31744 79.9522 5.10106L73.8595 13.8422C76.1235 13.7866 78.5133 14.1253 80.566 15.2881C81.0289 15.551 81.1547 15.9352 81.1899 16.3144V19.1304C81.1899 19.5146 80.7673 19.9645 80.3245 19.732C76.7071 17.826 71.9023 17.6187 67.9026 19.7522C67.495 19.9747 67.0674 19.5298 67.0674 19.1455V16.4711C67.0674 16.0414 67.0724 15.3083 67.5001 14.6562L74.5588 4.48428H68.4157C68.0384 4.48428 67.7365 4.21633 67.7365 3.82199Z" fill="black"/>
<path id="path14" fill-rule="evenodd" clip-rule="evenodd" d="M24.846 20.288H21.2688C20.9267 20.2627 20.655 20.0049 20.6299 19.6762V1.22833C20.6299 0.859268 20.9368 0.566041 21.3192 0.566041H24.6548C25.002 0.581197 25.2787 0.849154 25.3039 1.18282V3.59435H25.3693C26.2397 1.26371 27.8748 0.176758 30.0784 0.176758C32.3173 0.176758 33.716 1.26371 34.7222 3.59435C35.5876 1.26371 37.5548 0.176758 39.6629 0.176758C41.1621 0.176758 42.8023 0.798597 43.8035 2.19395C44.9355 3.74602 44.7041 6.00082 44.7041 7.97756L44.6991 19.6206C44.6991 19.9897 44.3922 20.288 44.0098 20.288H40.4377C40.0804 20.2627 39.7937 19.9745 39.7937 19.6206V9.84308C39.7937 9.06452 39.8641 7.12316 39.693 6.38504C39.4264 5.14642 38.6264 4.79758 37.59 4.79758C36.7246 4.79758 35.819 5.37898 35.4517 6.30921C35.0845 7.23944 35.1197 8.79657 35.1197 9.84308V19.6206C35.1197 19.9897 34.8128 20.288 34.4304 20.288H30.8583C30.496 20.2627 30.2143 19.9745 30.2143 19.6206L30.2093 9.84308C30.2093 7.78545 30.5463 4.75714 28.0056 4.75714C25.4347 4.75714 25.5353 7.70961 25.5353 9.84308V19.6206C25.5353 19.9897 25.2284 20.288 24.846 20.288" fill="black"/>
<path id="path16" fill-rule="evenodd" clip-rule="evenodd" d="M90.961 0.176758C96.2689 0.176758 99.1417 4.75714 99.1417 10.5812C99.1417 16.2081 95.967 20.6722 90.961 20.6722C85.7487 20.6722 82.9111 16.0918 82.9111 10.384C82.9111 4.64086 85.7839 0.176758 90.961 0.176758ZM90.9912 3.94319C88.3549 3.94319 88.1888 7.55289 88.1888 9.80264C88.1888 12.0574 88.1536 16.8704 90.961 16.8704C93.7332 16.8704 93.864 12.9877 93.864 10.6216C93.864 9.06452 93.7986 7.20406 93.3307 5.72782C92.9282 4.4437 92.1283 3.94319 90.9912 3.94319Z" fill="black"/>
<path id="path18" fill-rule="evenodd" clip-rule="evenodd" d="M106.024 20.288H102.462C102.104 20.2627 101.818 19.9745 101.818 19.6206L101.812 1.16766C101.843 0.828931 102.14 0.566041 102.502 0.566041H105.817C106.129 0.581197 106.386 0.793543 106.456 1.08171V3.90274H106.522C107.523 1.37999 108.927 0.176758 111.397 0.176758C113.002 0.176758 114.567 0.758154 115.573 2.35067C116.509 3.82691 116.509 6.30921 116.509 8.09384V19.7066C116.468 20.0301 116.171 20.288 115.819 20.288H112.232C111.905 20.2627 111.633 20.02 111.598 19.7066V9.68636C111.598 7.66917 111.83 4.71669 109.359 4.71669C108.489 4.71669 107.689 5.30315 107.291 6.19293C106.788 7.32033 106.723 8.44268 106.723 9.68636V19.6206C106.718 19.9897 106.406 20.288 106.024 20.288" fill="black"/>
<path id="path28" fill-rule="evenodd" clip-rule="evenodd" d="M58.3636 11.4762C58.3636 12.8766 58.3988 14.0445 57.6944 15.2882C57.1259 16.2993 56.2203 16.9211 55.2191 16.9211C53.8456 16.9211 53.0406 15.8696 53.0406 14.3175C53.0406 11.2538 55.7725 10.6977 58.3636 10.6977V11.4762ZM61.9709 20.2376C61.7345 20.4499 61.3924 20.4651 61.1257 20.3235C59.9383 19.3326 59.722 18.8726 59.073 17.9272C57.1108 19.9393 55.7172 20.5409 53.1764 20.5409C50.1627 20.5409 47.8232 18.6754 47.8232 14.9393C47.8232 12.0222 49.393 10.0354 51.6369 9.06471C53.5789 8.20525 56.2907 8.05359 58.3636 7.81597V7.35086C58.3636 6.49646 58.429 5.48533 57.9259 4.74722C57.4932 4.08493 56.658 3.81193 55.9184 3.81193C54.555 3.81193 53.3425 4.51466 53.0456 5.97067C52.9852 6.29423 52.7488 6.61274 52.4217 6.6279L48.9553 6.25379C48.6634 6.18807 48.3364 5.95045 48.422 5.5005C49.2169 1.27402 53.0205 0 56.4215 0C58.1623 0 60.4364 0.465117 61.8099 1.78969C63.5507 3.42265 63.3847 5.60161 63.3847 7.9727V13.5743C63.3847 15.2578 64.079 15.9959 64.7331 16.906C64.9595 17.2295 65.0098 17.6188 64.718 17.8615C63.9884 18.4732 62.6904 19.6107 61.976 20.2477L61.9709 20.2376" fill="black"/>
<path id="path30" fill-rule="evenodd" clip-rule="evenodd" d="M11.4681 11.4762C11.4681 12.8766 11.5033 14.0445 10.7989 15.2882C10.2304 16.2993 9.32981 16.9211 8.32357 16.9211C6.95006 16.9211 6.1501 15.8696 6.1501 14.3175C6.1501 11.2538 8.88204 10.6977 11.4681 10.6977V11.4762ZM15.0754 20.2376C14.839 20.4499 14.4968 20.4651 14.2302 20.3235C13.0428 19.3326 12.8315 18.8726 12.1775 17.9272C10.2153 19.9393 8.82669 20.5409 6.28091 20.5409C3.27226 20.5409 0.927734 18.6754 0.927734 14.9393C0.927734 12.0222 2.50249 10.0354 4.74137 9.06471C6.68341 8.20525 9.39522 8.05359 11.4681 7.81597V7.35086C11.4681 6.49646 11.5335 5.48533 11.0354 4.74722C10.5977 4.08493 9.76249 3.81193 9.02794 3.81193C7.66449 3.81193 6.44694 4.51466 6.1501 5.97067C6.08973 6.29423 5.85326 6.61274 5.53127 6.6279L2.05975 6.25379C1.76794 6.18807 1.44595 5.95045 1.52644 5.5005C2.3264 1.27402 6.12495 0 9.52603 0C11.2668 0 13.5409 0.465117 14.9144 1.78968C16.6552 3.42265 16.4892 5.60161 16.4892 7.97269V13.5743C16.4892 15.2578 17.1835 15.9959 17.8375 16.906C18.069 17.2295 18.1193 17.6188 17.8275 17.8615C17.098 18.4732 15.7999 19.6107 15.0855 20.2477L15.0754 20.2376" fill="black"/>
</g>
<defs>
<clipPath id="clip0_124_6146">
<rect width="115.581" height="35" fill="white" transform="translate(0.927734)"/>
</clipPath>
</defs>
</svg>
