<svg width="30" height="35" viewBox="0 0 30 35" fill="none" xmlns="http://www.w3.org/2000/svg">
<g id="Apple_logo_black 1" clip-path="url(#clip0_124_6166)">
<path id="path4" d="M29.2178 27.2766C28.6885 28.4994 28.0619 29.625 27.336 30.6598C26.3466 32.0706 25.5364 33.0471 24.912 33.5894C23.9442 34.4795 22.9072 34.9353 21.7967 34.9612C20.9995 34.9612 20.0381 34.7344 18.919 34.2742C17.7963 33.8162 16.7644 33.5894 15.821 33.5894C14.8315 33.5894 13.7703 33.8162 12.6352 34.2742C11.4984 34.7344 10.5826 34.9742 9.8824 34.998C8.81752 35.0433 7.75611 34.5745 6.69664 33.5894C6.02042 32.9996 5.17462 31.9885 4.16138 30.5561C3.07425 29.0265 2.18048 27.2528 1.48029 25.2307C0.730406 23.0465 0.354492 20.9314 0.354492 18.8838C0.354492 16.5382 0.861328 14.5152 1.87651 12.8199C2.67436 11.4582 3.73577 10.384 5.06422 9.59544C6.39266 8.80688 7.82805 8.40504 9.37384 8.37933C10.2196 8.37933 11.3288 8.64096 12.7072 9.15514C14.0816 9.67105 14.9642 9.93268 15.3511 9.93268C15.6404 9.93268 16.6208 9.62676 18.2828 9.01688C19.8545 8.45128 21.181 8.21708 22.2677 8.30934C25.2123 8.54698 27.4246 9.70778 28.8959 11.7991C26.2623 13.3948 24.9596 15.6297 24.9855 18.4968C25.0093 20.7301 25.8194 22.5885 27.4117 24.064C28.1332 24.7489 28.9391 25.2782 29.8356 25.6541C29.6412 26.218 29.436 26.7581 29.2178 27.2766ZM22.4643 0.701176C22.4643 2.45157 21.8248 4.08592 20.5501 5.59865C19.0119 7.39699 17.1514 8.43615 15.1337 8.27218C15.108 8.06218 15.0931 7.84117 15.0931 7.60893C15.0931 5.92854 15.8246 4.1302 17.1237 2.65982C17.7723 1.91534 18.5971 1.29631 19.5974 0.802498C20.5955 0.316057 21.5396 0.0470439 22.4276 0.000976562C22.4535 0.234978 22.4643 0.468993 22.4643 0.701153V0.701176Z" fill="black"/>
</g>
<defs>
<clipPath id="clip0_124_6166">
<rect width="29.4812" height="35" fill="white" transform="translate(0.354492)"/>
</clipPath>
</defs>
</svg>
