<svg width="61" height="40" viewBox="0 0 61 40" fill="none" xmlns="http://www.w3.org/2000/svg">
<g id="Frame" clip-path="url(#clip0_124_6156)">
<path id="Vector" d="M45.6218 20.0037C45.5228 19.8988 45.4056 19.8127 45.276 19.7495C44.3476 19.1946 43.4364 18.6119 42.4838 18.1053C41.822 17.7631 41.1341 17.474 40.4264 17.2409C39.5619 16.9435 39.0623 16.2814 39.1781 15.3771C39.2042 15.2442 39.196 15.1068 39.1543 14.978C39.1125 14.8491 39.0386 14.733 38.9395 14.6406C38.6162 14.319 38.6353 14.2568 39.1003 13.9905C39.0132 13.8054 38.9415 13.6134 38.8859 13.4165C38.8611 13.2711 38.8766 13.1216 38.9309 12.9843C39.0761 12.6143 39.2663 12.2634 39.4046 11.8917C39.5101 11.6047 39.4046 11.4318 39.0588 11.4266C38.0905 11.3952 37.1414 11.1483 36.2805 10.7039C35.8177 10.5049 35.3659 10.2816 34.9267 10.0348C34.2006 9.57492 33.4762 9.64234 32.7414 9.94663C32.591 10.0089 32.4924 10.1939 32.3697 10.3235L32.4354 10.4463L31.2252 10.3702C30.9537 10.3529 30.6477 10.2475 30.4178 10.3374C30.0063 10.4964 29.6294 10.4342 29.2352 10.3598L27.527 10.0331C27.6671 10.4497 27.4371 10.4238 27.2245 10.3789C26.8787 10.3201 26.5191 10.2302 26.1629 10.1818C25.907 10.1455 25.6442 10.1524 25.2794 10.1368L25.6494 10.6244C24.9796 10.8984 24.2431 10.966 23.5345 10.8184C22.826 10.6708 22.1777 10.3149 21.6729 9.79622C20.6356 8.67243 20.3503 7.26682 20.2258 5.81973C20.0685 4.00265 20.5215 2.30832 21.3496 0.700432C21.4359 0.505897 21.5099 0.306098 21.5709 0.10223L21.4326 0.00195312C21.2139 0.120302 21.0052 0.256179 20.8085 0.408248C19.8654 1.23098 19.2383 2.35636 19.0346 3.59117C18.9205 4.28273 18.9482 4.99677 18.8825 5.69698C18.8704 5.83529 18.7234 5.96323 18.6387 6.09463C18.5315 5.97879 18.3483 5.86987 18.3344 5.74884C18.2774 5.25092 18.2687 4.74608 18.2532 4.24469C18.2428 3.95078 18.2532 3.65859 18.2532 3.25749C18.0464 3.39237 17.8712 3.57035 17.7396 3.77923C17.608 3.98812 17.5231 4.22297 17.4907 4.46772C17.202 5.91309 17.4129 7.27201 18.2635 8.50645C18.3677 8.68284 18.4601 8.86593 18.5402 9.05451L18.3673 9.15825C18.1281 8.90372 17.9085 8.63151 17.7103 8.34393C17.4527 7.91344 17.266 7.43971 17.0187 6.99884C16.912 6.84658 16.7878 6.70732 16.6487 6.58391C16.5813 6.77581 16.5087 6.96599 16.4499 7.15963C16.4418 7.21747 16.4459 7.27638 16.462 7.33252C16.6232 8.5324 17.1784 9.64472 18.0405 10.4947C19.0554 11.5096 20.2691 12.2115 21.5727 12.782C21.7127 12.8443 21.9305 12.9843 21.9288 13.0846C21.9473 13.7007 21.9027 14.3171 21.7957 14.9242C21.5485 16.0203 20.461 16.3799 19.5377 15.7281C18.9672 15.3235 18.7736 15.3132 18.2791 15.8405C17.784 16.3667 17.1516 16.744 16.4534 16.9297C15.8171 17.1026 15.1861 17.3135 14.5516 17.5244C14.2238 17.6297 13.9047 17.7604 13.5972 17.9152C13.4779 17.9774 13.4122 18.1451 13.3223 18.2609L13.6456 18.4874L13.127 18.8453L13.4866 19.134C13.4494 19.1839 13.4181 19.2379 13.3932 19.2948C13.3552 19.4159 13.3275 19.5403 13.2947 19.6631C13.4295 19.6873 13.5782 19.7599 13.694 19.7253C13.9671 19.6342 14.2325 19.5215 14.4876 19.3882C15.544 18.8695 16.6142 18.3509 17.648 17.7924C18.6819 17.234 19.6259 17.3273 20.6304 17.891C21.1958 18.2074 21.8579 18.3681 22.4907 18.5445C23.0249 18.6932 23.516 18.5151 23.943 18.171C24.3234 17.8633 24.6968 17.5469 25.0789 17.2392C25.3698 16.9878 25.7194 16.8139 26.0953 16.7335C26.4713 16.6531 26.8614 16.6689 27.2297 16.7793C27.6311 16.9079 28.0243 17.0609 28.407 17.2374C29.1643 17.5538 29.8991 17.929 30.6736 18.1953C31.8627 18.6281 33.1596 18.6657 34.3718 18.3024C35.3469 17.9964 36.1474 18.076 36.7922 18.9197C37.1052 19.3242 37.4838 19.4383 38.0128 19.281C39.2006 18.9214 40.3728 18.9491 41.481 19.5939C41.979 19.8844 42.4769 20.1766 42.9921 20.4307C43.473 20.6618 43.9665 20.8655 44.4703 21.041C44.636 21.0797 44.8096 21.0674 44.9682 21.0057C45.1268 20.944 45.263 20.8358 45.359 20.6953L45.8949 20.4861C45.8174 20.318 45.726 20.1566 45.6218 20.0037Z" fill="black"/>
<path id="Vector_2" d="M57.463 25.8145C57.1597 25.5998 56.8318 25.4221 56.4862 25.2854C56.0004 25.1125 55.4852 25.0313 54.9907 24.8843C53.778 24.5268 52.4879 24.5268 51.2753 24.8843C49.1833 25.4981 47.4717 26.7014 46.5294 28.7761C46.4188 29.0199 46.4309 29.3276 46.296 29.5524C45.7773 30.4341 45.8655 31.4109 45.7773 32.7751C45.8517 33.228 45.9917 34.0717 46.1335 34.9154C46.3686 36.3072 47.2123 37.3203 48.2929 38.1087C49.4011 38.9161 50.5543 39.6181 52.0256 39.7356C53.082 39.8221 54.0917 40.0071 55.1757 39.7892C56.3514 39.5541 57.2815 38.9853 58.1269 38.2125C58.4433 37.9237 58.6767 37.5451 58.9827 37.2425C60.1186 36.1222 60.6425 34.7201 60.8534 33.1831C61.0644 31.6461 60.7808 30.2301 60.2034 28.8141C59.6553 27.4483 58.6283 26.5735 57.463 25.8145ZM55.9762 35.3235C54.991 36.077 53.7491 36.4129 52.5184 36.2588C50.9278 36.0634 50.1186 35.1367 49.5792 33.6879C49.1089 32.431 49.3527 31.3245 49.7901 30.1817C49.8749 29.9673 50.0066 29.7747 50.1757 29.6181C50.8551 28.9905 51.5018 28.4234 52.5512 28.3058C53.3932 28.2107 54.1626 28.3681 54.9129 28.534C56.0229 28.7796 56.6314 29.7097 56.9755 30.7332C57.183 31.3487 57.1951 32.0299 57.2919 32.6592C57.1881 33.7484 56.7732 34.7391 55.9762 35.3304V35.3235Z" fill="black"/>
<path id="Vector_3" d="M32.478 6.03181C32.395 6.13381 32.3691 6.42773 32.4382 6.48132C32.739 6.69296 33.0525 6.88582 33.377 7.05878C33.4721 7.20573 33.5862 7.4132 33.7228 7.42358C34.2104 7.46334 34.7031 7.43914 35.2304 7.43914L34.4092 8.41943L34.7394 8.56293L34.2034 8.98305C34.3331 9.05912 34.3988 9.10753 34.4714 9.14038C35.061 9.40663 35.6609 9.65041 36.2384 9.93914C37.1456 10.3806 38.1183 10.6725 39.1187 10.8036C39.5198 10.8624 39.7895 10.7552 39.8985 10.3316C39.9591 10.1092 40.0425 9.89367 40.1474 9.68844C40.3826 9.1818 40.7159 8.72685 41.1281 8.34994C41.5403 7.97304 42.0232 7.68168 42.5489 7.49273C43.7712 7.04494 44.3487 6.20124 44.2225 4.95988C44.1844 4.58125 43.9925 4.4049 43.6346 4.43084C43.2324 4.45284 42.8321 4.50194 42.4365 4.57779C41.7605 4.71611 41.209 4.59681 40.7266 4.05912C40.1855 3.44536 39.5164 3.03907 38.6346 3.16873C38.102 3.23649 37.5622 3.11865 37.1063 2.83505C36.783 2.65179 36.4355 2.44086 36.0828 2.40283C34.942 2.24521 33.7841 2.52974 32.8462 3.19813C32.7071 3.32324 32.5793 3.46035 32.4642 3.60788C32.7252 3.69086 32.8998 3.741 33.0675 3.80497C33.154 3.83782 33.3009 3.90179 33.2992 3.94501C33.2837 4.32019 33.5845 4.29079 33.8006 4.35131C33.9735 4.40145 34.1464 4.43084 34.3106 4.4706L34.3279 4.5899C33.932 4.86998 33.5309 5.14142 33.1436 5.4336C32.8998 5.60717 32.6765 5.80786 32.478 6.03181ZM43.8525 4.94605C43.8525 5.04114 43.9113 5.23997 43.8386 5.31604C43.7027 5.4677 43.5203 5.56988 43.32 5.60649C43.1717 5.63369 43.0186 5.60676 42.8885 5.53061C42.7584 5.45446 42.66 5.33415 42.6111 5.19156L43.8525 4.94605Z" fill="black"/>
<path id="Vector_4" d="M16.7611 21.3672C16.9613 21.3392 17.1575 21.2876 17.3455 21.2133C17.9022 20.9125 18.452 20.5996 18.9862 20.2624C19.7123 19.8043 20.4782 19.5017 21.3479 19.5709C21.7643 19.6136 22.1781 19.6788 22.5875 19.7662C23.7511 19.9979 24.7383 19.7351 25.5612 18.8361C26.0139 18.376 26.4949 17.9447 27.0014 17.5446C27.2365 17.3458 27.1847 17.1659 26.9478 17.102C26.6808 17.013 26.3937 17.0034 26.1214 17.0743C25.8008 17.1989 25.5116 17.3925 25.2742 17.6414C24.1383 18.8049 22.8538 19.3426 21.2148 18.8257C20.678 18.6593 20.1241 18.5543 19.5637 18.5128C19.195 18.4698 18.8216 18.5296 18.4848 18.6857C17.6584 19.1334 16.8424 19.6331 16.666 20.7085L16.9478 20.8174L16.7041 21.2358L16.7611 21.3672Z" fill="black"/>
<path id="Vector_5" d="M41.1474 15.2092C40.7463 15.1833 40.3486 15.1072 39.9493 15.0761C39.6744 15.0554 39.5585 15.2058 39.5914 15.4807C39.6158 15.7933 39.7493 16.0874 39.9687 16.3115C40.188 16.5356 40.4792 16.6754 40.7912 16.7065C41.2044 16.7532 41.6228 16.7445 42.0378 16.7825C43.0509 16.8742 44.0658 16.9658 45.0772 17.0868C45.3919 17.1249 45.6892 17.2373 45.6166 16.7497L46.2788 16.8638L46.1267 16.4039L46.7992 16.3399C46.757 16.1595 46.6585 15.9972 46.5181 15.8763C46.3776 15.7555 46.2024 15.6823 46.0177 15.6674C45.0271 15.5135 44.0295 15.4012 43.0319 15.3061C42.406 15.2455 41.7784 15.2525 41.1474 15.2092Z" fill="black"/>
<path id="Vector_6" d="M18.6332 34.1169C19.7501 33.9976 20.8687 33.899 21.9873 33.8022C23.8528 33.6397 25.7183 33.491 27.582 33.325C28.1266 33.2766 28.2528 33.1521 28.2978 32.5972C28.4121 31.3174 28.2585 30.0279 27.8465 28.8108C27.314 27.2738 26.2456 26.0809 24.8625 25.2493C23.4396 24.3935 21.8524 24.1393 20.1944 24.3676C18.9447 24.525 17.7721 25.0579 16.8317 25.8959C16.3044 26.3662 15.8739 26.9471 15.4244 27.4969C14.6325 28.4651 14.2971 29.6269 14.1415 30.8337C13.9702 32.1345 14.053 33.4562 14.3853 34.7254C14.8279 36.4353 15.7373 37.8375 17.1688 38.797C17.4185 38.9645 17.679 39.1153 17.9486 39.2483C18.0938 39.3209 18.2407 39.3866 18.3894 39.4471C19.4496 39.8747 20.5925 40.0579 21.7331 39.9831C21.83 39.9831 21.9285 39.9934 22.0236 39.9831C22.056 39.9813 22.0883 39.9778 22.1204 39.9727C23.0817 39.8205 24.0896 39.7998 24.9939 39.473C26.4997 38.9371 27.4333 37.7044 28.1958 36.3437C28.3306 36.1068 28.2978 35.9409 28.0661 35.806C27.6183 35.5467 27.1844 35.2579 26.7193 35.0332C25.701 34.5404 25.682 34.5422 24.9109 35.379C24.4023 35.9185 23.7171 36.2577 22.9797 36.3351C22.5186 36.3984 22.061 36.4492 21.6069 36.4872C20.2238 36.603 19.0827 36.1656 18.2442 35.0349C17.8448 34.4869 17.9641 34.1808 18.6332 34.1169ZM17.7843 30.3219C18.0488 29.2223 18.8217 28.6276 19.814 28.2213C20.7693 27.825 21.8393 27.8052 22.8085 28.166C23.8787 28.5377 24.6239 29.2362 24.8538 30.4948C24.1432 30.538 23.488 30.583 22.831 30.6193C21.2957 30.7023 19.7599 30.7824 18.2235 30.8596C17.7843 30.8838 17.6806 30.7559 17.7843 30.3219Z" fill="black"/>
<path id="Vector_7" d="M12.1464 34.2674C11.9096 33.5153 11.5379 32.8842 10.8826 32.4157C10.7097 32.2929 10.5074 32.1477 10.7495 31.897C11.1324 31.5086 11.4313 31.0455 11.6276 30.5366C11.8239 30.0277 11.9134 29.4838 11.8906 28.9389C11.8906 28.1539 11.7436 27.49 11.2249 26.916C10.0147 25.5761 8.61083 24.6529 6.7073 24.6927C5.66996 24.7151 4.61533 24.6373 3.56934 24.6166C2.8674 24.6028 2.16373 24.6166 1.4618 24.6045C1.17653 24.6045 1.06933 24.7013 1.06588 25.0125C1.05204 26.8953 1.01055 28.7798 0.97943 30.6643C0.953496 32.2445 0.932753 33.823 0.901632 35.4033C0.901632 35.6903 0.82556 35.9755 0.835933 36.2677C0.863596 37.0699 0.91719 37.8704 0.958684 38.6726H0.913736C0.913736 38.932 0.931025 39.1913 0.913736 39.4506C0.882616 39.8051 1.00018 39.9555 1.37362 39.9053C1.6429 39.8683 1.9155 39.8619 2.18621 39.8863C4.12604 40.0592 6.06415 39.952 7.99534 39.7912C10.1046 39.6183 11.5085 38.498 12.1828 36.4804C12.4104 35.7582 12.3977 34.9817 12.1464 34.2674ZM4.52888 28.6761C4.52888 28.3303 4.66546 28.1574 5.05965 28.211C5.39214 28.2373 5.72607 28.2401 6.05896 28.2196C6.43759 28.2559 6.95281 28.294 7.46457 28.3597C7.79479 28.4012 8.0645 28.6035 8.06968 28.9337C8.07472 29.3561 8.01644 29.7768 7.89679 30.1819C7.84777 30.274 7.77779 30.3533 7.6925 30.4134C7.60721 30.4734 7.509 30.5126 7.40578 30.5277C6.56553 30.6211 5.71837 30.6626 4.87293 30.7196C4.82721 30.729 4.77989 30.7273 4.735 30.7145C4.6901 30.7017 4.64895 30.6783 4.61502 30.6462C4.5811 30.6142 4.5554 30.5744 4.5401 30.5303C4.5248 30.4862 4.52036 30.4391 4.52715 30.3929C4.52715 29.8241 4.52369 29.2501 4.52888 28.6761ZM7.28303 36.3542C6.79202 36.4406 6.28545 36.4458 5.7858 36.4873V36.4147C5.45385 36.4147 5.12362 36.4147 4.7934 36.4147C4.56691 36.4147 4.49603 36.3127 4.50468 36.0965C4.52715 35.507 4.55136 34.9174 4.54444 34.3296C4.53526 34.2764 4.53795 34.2218 4.55233 34.1697C4.5667 34.1177 4.59239 34.0694 4.62758 34.0285C4.66277 33.9875 4.70657 33.9548 4.75586 33.9328C4.80515 33.9107 4.8587 33.8998 4.9127 33.9008C5.79962 33.823 6.68828 33.7383 7.57694 33.7003C7.97978 33.683 8.36187 34.2362 8.41892 34.8137C8.50018 35.6591 8.11809 36.2089 7.28303 36.3542Z" fill="black"/>
<path id="Vector_8" d="M44.0468 35.4322C43.3933 35.1141 42.6965 34.8789 42.0136 34.6213C41.6678 34.4865 41.4016 34.6213 41.1388 34.8928C40.7596 35.3018 40.3363 35.6677 39.8767 35.9837C39.0658 36.5127 38.1305 36.5369 37.209 36.4107C36.5174 36.3174 35.7878 36.2603 35.2346 35.7659C33.867 34.5435 33.5299 32.9996 33.931 31.2707C34.0138 30.9063 34.1513 30.5565 34.339 30.2334C34.5603 29.8564 34.8006 29.4329 35.1464 29.196C36.6384 28.1777 38.7961 27.9668 40.347 29.0525C40.5183 29.184 40.7046 29.2948 40.9019 29.3827C40.9703 29.4129 41.0442 29.4285 41.1189 29.4285C41.1936 29.4285 41.2675 29.4129 41.3359 29.3827C42.0499 28.8502 42.7536 28.3022 43.4365 27.7299C43.4828 27.6629 43.5112 27.5851 43.5191 27.5041C43.5269 27.423 43.514 27.3412 43.4815 27.2665C43.108 26.8343 42.7622 26.307 42.2799 26.0563C40.8345 25.2991 39.3649 24.5245 37.6568 24.7026C36.0022 24.6801 34.5845 25.3042 33.2325 26.1445C31.9499 26.9252 31.0286 28.1822 30.6703 29.6403C30.4915 30.2775 30.3569 30.9262 30.2674 31.5819C30.1395 32.6192 30.1135 33.6479 30.468 34.6542C30.7487 35.4707 31.1452 36.2428 31.6454 36.9467C32.1277 37.6175 32.6274 38.2468 33.3224 38.7067C35.162 39.917 37.1675 40.2091 39.3148 39.8547C41.507 39.4916 43.1927 38.4111 44.3286 36.4937C44.6554 35.9508 44.6312 35.7174 44.0468 35.4322Z" fill="black"/>
</g>
<defs>
<clipPath id="clip0_124_6156">
<rect width="60.0916" height="40" fill="white" transform="translate(0.835938)"/>
</clipPath>
</defs>
</svg>
