<svg width="107" height="35" viewBox="0 0 107 35" fill="none" xmlns="http://www.w3.org/2000/svg">
<g id="Google">
<path id="Vector" d="M46.0092 18.4189C46.0092 23.4544 42.0699 27.1649 37.2356 27.1649C32.4012 27.1649 28.4619 23.4544 28.4619 18.4189C28.4619 13.3479 32.4012 9.67285 37.2356 9.67285C42.0699 9.67285 46.0092 13.3479 46.0092 18.4189ZM42.1685 18.4189C42.1685 15.2722 39.8854 13.1192 37.2356 13.1192C34.5857 13.1192 32.3026 15.2722 32.3026 18.4189C32.3026 21.534 34.5857 23.7186 37.2356 23.7186C39.8854 23.7186 42.1685 21.5301 42.1685 18.4189Z" fill="black"/>
<path id="Vector_2" d="M64.9369 18.4189C64.9369 23.4544 60.9977 27.1649 56.1633 27.1649C51.3289 27.1649 47.3896 23.4544 47.3896 18.4189C47.3896 13.3519 51.3289 9.67285 56.1633 9.67285C60.9977 9.67285 64.9369 13.3479 64.9369 18.4189ZM61.0962 18.4189C61.0962 15.2722 58.8131 13.1192 56.1633 13.1192C53.5135 13.1192 51.2303 15.2722 51.2303 18.4189C51.2303 21.534 53.5135 23.7186 56.1633 23.7186C58.8131 23.7186 61.0962 21.5301 61.0962 18.4189Z" fill="black"/>
<path id="Vector_3" d="M83.0761 10.2012V25.9031C83.0761 32.3621 79.267 35.0001 74.7638 35.0001C70.5249 35.0001 67.9736 32.1649 67.0115 29.8463L70.3553 28.4544C70.9507 29.8779 72.4097 31.5577 74.7599 31.5577C77.6424 31.5577 79.4286 29.7793 79.4286 26.4315V25.1736H79.2946C78.4349 26.2343 76.7788 27.161 74.6889 27.161C70.3159 27.161 66.3096 23.3519 66.3096 18.4504C66.3096 13.5135 70.3159 9.67285 74.6889 9.67285C76.7748 9.67285 78.431 10.5995 79.2946 11.6287H79.4286V10.2052H83.0761V10.2012ZM79.7007 18.4504C79.7007 15.3708 77.6463 13.1192 75.032 13.1192C72.3821 13.1192 70.1621 15.3708 70.1621 18.4504C70.1621 21.4985 72.3821 23.7186 75.032 23.7186C77.6463 23.7186 79.7007 21.4985 79.7007 18.4504Z" fill="black"/>
<path id="Vector_4" d="M89.0888 0.998047V26.6289H85.3428V0.998047H89.0888Z" fill="black"/>
<path id="Vector_5" d="M103.687 21.2975L106.668 23.2849C105.706 24.7084 103.388 27.161 99.3812 27.161C94.4127 27.161 90.7021 23.3203 90.7021 18.415C90.7021 13.2139 94.4443 9.66895 98.9514 9.66895C103.49 9.66895 105.71 13.2809 106.436 15.2328L106.834 16.2265L95.1422 21.0688C96.0373 22.8235 97.4293 23.7186 99.3812 23.7186C101.337 23.7186 102.693 22.7565 103.687 21.2975ZM94.5113 18.1508L102.327 14.9055C101.897 13.8133 100.604 13.0522 99.0815 13.0522C97.1296 13.0522 94.4127 14.7754 94.5113 18.1508Z" fill="black"/>
<path id="Vector_6" d="M14.2824 16.1435V12.433H26.7863C26.9086 13.0796 26.9717 13.8446 26.9717 14.6727C26.9717 17.4566 26.2106 20.899 23.758 23.3517C21.3723 25.8359 18.3242 27.1609 14.2864 27.1609C6.80215 27.1609 0.508789 21.0646 0.508789 13.5804C0.508789 6.09621 6.80215 0 14.2864 0C18.4267 0 21.3763 1.6246 23.5923 3.74211L20.9741 6.3604C19.3849 4.86987 17.2319 3.71056 14.2824 3.71056C8.81713 3.71056 4.54269 8.11513 4.54269 13.5804C4.54269 19.0457 8.81713 23.4503 14.2824 23.4503C17.8274 23.4503 19.8463 22.0268 21.1397 20.7334C22.1886 19.6845 22.8786 18.1861 23.1507 16.1396L14.2824 16.1435Z" fill="black"/>
</g>
</svg>
