<svg width="134" height="35" viewBox="0 0 134 35" fill="none" xmlns="http://www.w3.org/2000/svg">
<g id="Nestle">
<path id="Vector" fill-rule="evenodd" clip-rule="evenodd" d="M117.682 10.3271C117.682 9.70125 117.178 9.19446 116.551 9.19446H114.876C114.25 9.19446 113.746 9.70339 113.746 10.3292V27.8472C113.746 28.4737 114.251 28.9805 114.876 28.9805H116.553C117.178 28.9805 117.682 28.4709 117.682 27.8458V10.3271ZM119.817 10.7925V11.6258C119.817 11.9693 120.099 12.248 120.444 12.248H131.999C132.526 12.248 132.954 11.8225 132.954 11.2957V9.88586C132.954 9.3584 132.521 8.88155 131.999 8.93359C131.999 8.93359 120.826 10.0298 120.469 10.0698C120.289 10.0856 120.122 10.1689 120.001 10.303C119.88 10.4371 119.814 10.612 119.817 10.7925ZM110.462 28.9812C107.587 28.9812 105.777 26.8008 105.777 24.3745L105.776 17.3651H104.953C104.849 17.3652 104.746 17.3447 104.65 17.305C104.554 17.2653 104.466 17.207 104.393 17.1334C104.319 17.0599 104.261 16.9726 104.221 16.8764C104.181 16.7803 104.16 16.6773 104.16 16.5732V15.3999C104.16 14.9616 104.516 14.6087 104.956 14.6087L105.776 14.6102L105.775 10.3007C105.775 9.69056 106.266 9.19589 106.877 9.19589H108.512C109.12 9.19589 109.614 9.69412 109.614 10.3043V14.6109L112.16 14.6102C112.599 14.6102 112.957 14.9623 112.957 15.4013V16.5746C112.957 17.0137 112.6 17.3665 112.163 17.3665L109.614 17.3658L109.617 23.8492C109.617 25.1215 110.388 25.9904 111.765 25.9904H111.998C112.474 25.9904 112.861 26.3732 112.861 26.8493V28.1216C112.861 28.5992 112.475 28.9819 111.999 28.9819H110.462V28.9812ZM83.5414 14.1048C78.894 14.1048 76.2881 17.7414 76.2881 21.574C76.2881 25.6583 79.0793 29.2528 83.572 29.2528C86.647 29.2528 89.6777 27.6327 90.2501 24.9733C90.3278 24.614 90.0862 24.1436 89.5808 24.1407L87.3826 24.1422C86.9841 24.1422 86.6584 24.3332 86.4624 24.6212C85.833 25.5428 84.9128 26.0325 83.5514 26.0325C81.6261 26.0325 80.2925 24.5164 80.192 22.8349H89.5345C90.3948 22.8349 90.7804 22.3673 90.7804 21.5733C90.7804 17.8376 88.5672 14.1048 83.5414 14.1048ZM83.5414 17.1042C85.2563 17.1042 86.7375 18.3245 86.8879 19.976H80.2198C80.3702 18.3245 81.8264 17.1042 83.5414 17.1042ZM126.117 14.1048C121.469 14.1048 118.862 17.7414 118.862 21.574C118.862 25.6583 121.653 29.2528 126.146 29.2528C129.221 29.2528 132.252 27.6327 132.824 24.9733C132.902 24.614 132.66 24.1436 132.155 24.1407L129.958 24.1422C129.558 24.1422 129.232 24.3332 129.036 24.6212C128.407 25.5428 127.487 26.0325 126.125 26.0325C124.2 26.0325 122.866 24.5164 122.766 22.8349H132.108C132.969 22.8349 133.354 22.3673 133.354 21.5733C133.354 17.8376 131.14 14.1048 126.117 14.1048ZM126.117 17.1042C127.83 17.1042 129.313 18.3245 129.462 19.976H122.794C122.943 18.3245 124.4 17.1042 126.117 17.1042Z" fill="black"/>
<path id="Vector_2" fill-rule="evenodd" clip-rule="evenodd" d="M102.634 9.38996H72.3699C71.6821 9.38996 71.1268 9.94879 71.1268 10.6366L71.2302 22.5223C71.2302 22.5223 64.7096 10.7421 64.3696 10.142C64.0496 9.57671 63.3631 9.05566 62.4123 9.05566H59.9239C59.2354 9.05566 58.6787 9.61449 58.6787 10.3023L58.6801 27.7335C58.6801 28.4213 59.2361 28.9794 59.9247 28.9794H61.5206C61.8512 28.9787 62.1679 28.8467 62.4013 28.6126C62.6346 28.3784 62.7655 28.0612 62.7651 27.7306L62.6646 15.5114C62.6646 15.5114 69.2486 27.4078 69.5302 27.8768C69.9101 28.5104 70.5537 28.9794 71.4846 28.9794H73.7705C74.4598 28.9794 75.015 28.4213 75.015 27.7335L75.0136 12.3445H102.635C102.747 12.3447 102.858 12.323 102.961 12.2805C103.064 12.238 103.158 12.1756 103.237 12.0968C103.316 12.018 103.378 11.9244 103.421 11.8213C103.464 11.7183 103.486 11.6078 103.486 11.4962V10.2382C103.485 10.0128 103.395 9.79682 103.236 9.63777C103.076 9.47872 102.859 9.38958 102.634 9.38996Z" fill="black"/>
<path id="Vector_3" fill-rule="evenodd" clip-rule="evenodd" d="M97.7347 16.9587C99.0505 16.9587 100.035 17.4363 100.39 18.261C100.56 18.658 100.89 18.7343 101.342 18.7343H103.152C103.453 18.7343 103.793 18.477 103.793 18.0856C103.793 15.9815 101.286 14.1033 97.7333 14.1033C94.0582 14.1033 91.6454 15.8546 91.6454 18.6423C91.6454 20.7764 93.3297 22.0459 95.4025 22.5876C96.3477 22.8356 97.9614 23.2334 98.7462 23.4394C99.593 23.6618 100.35 23.9198 100.35 24.6461C100.35 25.7901 99.1418 26.18 97.826 26.18C96.5772 26.18 95.3341 25.6219 94.9777 24.7324C94.7703 24.2156 94.4096 24.1408 93.8615 24.1408H92.0211C91.6996 24.1408 91.3304 24.4166 91.3304 24.8357V25.0724C91.3304 27.1088 94.0618 29.2407 97.8288 29.2407C100.5 29.2407 104.223 28.1309 104.223 24.5478C104.223 22.4721 102.835 21.0352 100.576 20.4621C99.692 20.2383 97.5687 19.698 97.1068 19.5782C96.2828 19.3651 95.5158 19.0964 95.5158 18.3907C95.5158 17.3222 96.5031 16.9587 97.7347 16.9587ZM30.7416 5.36312C30.9025 5.36312 31.0568 5.29922 31.1705 5.18546C31.2843 5.07171 31.3482 4.91742 31.3482 4.75655C31.3482 4.59567 31.2843 4.44139 31.1705 4.32763C31.0568 4.21387 30.9025 4.14997 30.7416 4.14997C30.5808 4.14997 30.4265 4.21387 30.3127 4.32763C30.199 4.44139 30.1351 4.59567 30.1351 4.75655C30.1351 4.91742 30.199 5.07171 30.3127 5.18546C30.4265 5.29922 30.5808 5.36312 30.7416 5.36312ZM22.5959 4.28896C22.7313 4.28896 22.8611 4.23519 22.9568 4.13948C23.0525 4.04377 23.1063 3.91396 23.1063 3.7786C23.1063 3.64325 23.0525 3.51344 22.9568 3.41773C22.8611 3.32202 22.7313 3.26825 22.5959 3.26825C22.4606 3.26825 22.3308 3.32202 22.2351 3.41773C22.1394 3.51344 22.0856 3.64325 22.0856 3.7786C22.0856 3.91396 22.1394 4.04377 22.2351 4.13948C22.3308 4.23519 22.4606 4.28896 22.5959 4.28896ZM16.4895 16.7684L16.2408 16.5018C16.9336 15.8582 17.667 14.8318 17.7861 14.2295C17.8966 13.6692 18.702 13.7583 18.5488 14.3678C18.3542 15.1468 17.4005 16.0877 16.4895 16.7684ZM11.3211 4.50137C10.046 5.05306 9.85921 6.36031 10.7538 7.14509C11.8322 8.09024 13.6106 7.26698 13.4395 5.82002C14.8858 5.89415 15.8188 4.40015 15.5886 3.35093C16.2322 2.79995 16.2964 1.62243 15.5244 1.15983C14.6969 0.664443 13.9178 0.85404 13.4217 1.80989C12.0966 1.71366 10.8272 2.75575 11.3211 4.50137L10.7074 4.23336C9.89841 2.54121 11.3154 0.812701 13.0532 1.21115C13.1791 0.93854 13.3624 0.69633 13.5905 0.501082C13.8186 0.305834 14.0862 0.162151 14.375 0.0798553C14.6638 -0.00244076 14.967 -0.0214068 15.2637 0.0242504C15.5605 0.0699077 15.8439 0.17911 16.0946 0.344398C17.2101 1.02012 17.4461 2.7636 16.26 3.60896C16.8195 5.23625 15.704 6.56559 14.0069 6.41377C13.808 8.50651 11.8336 8.77666 10.5584 7.78304C9.83854 7.22207 9.54416 6.44442 9.40517 5.8578C9.25904 5.23696 9.25904 4.68099 8.64605 4.04162C8.18488 3.55907 7.35876 3.57546 7.35876 3.57546C7.35876 2.05509 5.93676 0.66373 4.1712 1.33731C3.54537 0.798447 2.772 0.744985 2.21817 1.41144C1.89599 1.79848 1.71851 2.81563 2.71141 3.28179C2.66009 4.66745 3.71644 5.55201 5.26104 5.42942C5.32163 6.16572 6.13777 6.85 6.86124 6.94765L6.85483 7.31759C6.08288 7.24346 5.66519 7.51289 5.15056 8.15083C3.3351 8.0653 2.06349 8.87288 2.11624 10.1751C0.840357 10.4175 0.601575 11.7533 1.32505 12.4646C2.04853 13.176 3.10915 12.8973 3.47053 12.0476C4.75782 12.2928 5.89471 11.3705 5.94674 10.3063C7.14921 10.3063 7.67524 9.83087 7.87197 8.72534L8.32601 8.76241C8.46001 9.95276 7.90903 11.0825 6.4742 10.9478C6.43713 12.3691 5.0579 13.1639 3.77132 12.6727C3.17045 13.8011 1.79406 14.2523 0.638639 13.151C-0.47758 12.0875 -0.0698674 10.2664 1.3892 9.82517C1.4227 8.43167 2.45196 7.10803 4.45132 7.61838C4.45132 7.61838 4.70863 6.99612 5.33446 6.95905C4.91748 6.78798 4.60172 6.55776 4.51547 6.12866C3.00722 6.45013 1.72635 5.06162 2.0692 3.66385C0.708492 2.9475 0.686396 1.60318 1.3614 0.804148C2.06492 -0.0276729 3.23674 -0.211572 4.28524 0.685113C6.06078 -0.298531 8.06798 0.906073 7.94538 2.92896C9.18705 2.84628 9.94118 3.93185 9.8029 5.06233C10.0075 4.56409 10.247 4.33315 10.706 4.23336L11.3211 4.50137Z" fill="black"/>
<path id="Vector_4" fill-rule="evenodd" clip-rule="evenodd" d="M14.3721 2.07324L14.6722 2.28779C14.0898 3.51663 13.0591 4.82174 12.1767 5.53951L11.8395 5.28576C12.4654 4.2679 13.8083 2.58787 14.3721 2.07324ZM5.68465 8.8226L5.88708 9.12268C5.15149 9.8768 3.79007 10.8825 3.06731 11.2318L2.78504 10.9253C3.48429 10.1712 4.82004 9.18398 5.68465 8.8226ZM7.4438 5.171L7.08884 5.61008C6.12586 4.97855 4.22558 3.2807 3.7972 2.66842L4.09657 2.36263C5.01677 2.82879 6.81228 4.42971 7.4438 5.171ZM5.65757 21.2828C5.76733 21.8338 5.67538 22.4439 6.1722 23.0398C6.34754 23.2486 7.31194 24.5181 8.01118 25.1739C7.06104 25.5481 5.16075 26.3207 3.79292 26.4925C3.51921 26.5274 3.21129 26.7192 2.95326 26.8667C2.78219 27.159 2.60542 27.6814 2.53129 28.2716C2.47855 28.6936 2.48567 29.1626 2.48567 29.6416C2.48567 30.0636 2.70878 31.3901 3.18064 32.281C3.65322 33.172 4.10655 33.5705 4.66466 33.8306C4.77514 33.7822 5.0182 33.7458 5.3974 33.7373C6.43022 33.7137 7.23852 34.2847 7.59491 34.7744C7.73106 34.9625 8.00476 34.9996 8.36472 34.9996C9.19797 34.9996 10.1146 34.7252 10.9849 34.3937C11.171 34.2405 11.6956 33.8912 12.2109 33.4864C12.7255 33.0829 15.5945 30.6495 16.864 30.035C17.5326 30.3971 18.6302 30.8633 19.7636 30.8633C19.8291 30.8633 20.0473 30.8662 20.2789 30.8148C20.6332 30.7343 21.0872 30.5768 21.6582 30.4641C22.681 30.2653 23.8806 30.0899 24.2306 30.0949C25.1715 30.1099 27.9292 30.1812 28.5829 30.1812C29.2686 30.1812 30.2465 30.1213 30.62 30.0849C31.1973 29.8939 32.4839 29.5375 33.7163 28.9687C34.9459 28.4242 37.5347 26.6272 37.9581 26.2167C38.1641 26.0328 38.3466 25.8311 38.4813 25.6514C38.5319 25.5816 38.5504 25.5538 38.5504 25.4982L38.5362 23.6827C38.5362 23.6827 39.1549 22.9963 39.3915 22.7582C39.4143 22.7361 39.4158 22.7041 39.4122 22.682C39.306 22.3299 39.1998 21.2343 39.2604 20.1231L38.6338 19.8308C38.6055 20.998 38.2593 22.1354 37.6324 23.1203C36.7008 23.2679 34.9231 23.8189 34.283 24.5473L34.6351 24.6478C35.236 24.3164 35.8796 24.084 36.6152 24.084C37.2653 24.084 37.5518 24.2551 37.5518 24.4376C37.5518 24.5659 37.4292 24.8731 37.3822 24.9707C37.3259 25.0819 37.2888 25.2238 37.1797 25.3421C36.2914 26.3168 35.2505 27.1406 34.0977 27.7812C33.2808 28.2381 32.5103 28.5453 31.3057 28.8868C30.945 28.9887 30.4503 29.1348 30.1289 29.246C29.6748 29.2317 27.3027 29.1626 25.917 29.1626C24.5321 29.1626 21.6753 29.3643 20.7672 29.5938C20.3552 29.6979 20.2525 29.864 19.7736 29.864C18.879 29.864 17.705 29.4099 16.9844 29.0607C16.8804 29.0913 16.6195 29.2068 16.3593 29.3365C15.8475 29.591 14.7099 31.1698 14.0485 30.6922C13.7106 31.3844 12.2522 32.0401 11.7533 32.7579C11.8082 32.3823 12.3969 29.9445 12.4525 29.457C12.4625 29.3707 12.4696 29.3009 12.4148 29.2089C11.8823 28.3194 10.394 27.7541 9.55507 27.5902C9.30845 27.5417 9.18727 27.5082 9.02191 27.4705L7.69827 27.0706L6.47014 27.4705L7.88716 27.742L6.0888 28.9338C6.401 28.8141 8.33906 28.2766 8.48233 28.2338C8.64057 28.1868 8.85226 28.1405 9.08321 28.221C9.34694 28.313 10.0946 28.484 10.5394 28.6387C10.801 28.7292 11.2294 29.2096 11.3399 29.4655C11.3848 29.5725 11.4019 29.797 11.4311 30.2938C11.4489 30.6067 11.3691 31.0415 11.2936 31.3794C11.0954 32.2632 10.6934 32.9539 10.5665 33.2005C10.3912 33.5405 10.1488 33.6503 9.91004 33.7629C9.51801 33.9468 9.03901 34.0623 8.50656 34.0694C8.14091 34.0737 7.89642 34.0544 7.74032 33.8427C7.24921 33.1799 6.03605 32.5369 4.79723 32.7764C4.03741 32.3167 3.28399 30.8327 3.28399 29.6509C3.28399 28.9424 3.64181 27.8254 3.83426 27.2645C5.07166 27.0991 7.54644 26.1561 8.75034 25.6094C9.00266 25.5965 9.69478 25.3521 10.3562 25.3521C11.975 25.3521 13.5809 26.7676 14.556 27.7242C14.7156 27.4612 15.0157 27.0627 15.8433 27.0627C16.9894 27.0627 17.6452 28.1041 17.9738 29.1761L18.5711 28.7421C18.452 28.0758 18.1362 27.4604 17.6644 26.9751C17.2688 26.5795 16.5154 26.2509 15.9259 26.2509C15.5717 26.2509 15.2032 26.33 14.9708 26.33C14.1518 26.33 13.8182 25.9651 13.2138 25.5488C12.5609 25.0976 11.3463 24.4433 10.4796 24.4433C9.92144 24.4433 9.67054 24.6621 9.21008 24.6635C8.53294 24.6678 8.28132 24.3862 7.95701 23.9828C7.81516 23.806 7.12946 23.1973 6.94628 22.9528C6.84079 22.8124 6.65404 22.2372 6.58632 21.9492L5.65757 21.2828Z" fill="black"/>
<path id="Vector_5" fill-rule="evenodd" clip-rule="evenodd" d="M6.58846 21.9501C6.78519 22.1604 6.97479 22.3927 7.2207 22.5809C7.45806 22.7605 7.75814 22.9166 8.03969 23.0763C8.43743 23.3015 8.88862 23.5596 9.33625 23.7014C9.72828 23.8197 10.2372 23.8682 10.7148 23.8682C11.3955 23.8682 12.1988 23.7278 12.8638 24.0378C13.31 24.2467 13.34 24.7171 13.6942 24.8547C14.2459 25.0692 15.7791 25.1191 16.6287 25.1191C18.3116 25.1191 20.1321 24.906 21.2077 24.6487L20.6831 24.0706C19.9389 24.1889 17.7549 24.427 16.7528 24.427C15.3407 24.427 14.0071 24.2018 14.0071 23.6166C14.0071 23.2131 14.4419 22.6294 15.2695 22.6294C16.1583 22.6294 17.5019 23.1668 17.75 23.2402C17.9987 23.3144 18.0999 23.2944 18.256 23.2224L18.7764 22.9537C18.0857 22.6322 15.6815 21.8054 14.8439 21.8054C14.4476 21.8054 14.2331 21.8624 13.9758 22.1939C13.6543 22.6073 12.7961 22.9843 11.4254 22.9843C10.6741 22.9843 9.59927 22.8503 9.36333 22.7534C8.95063 22.5838 8.14233 22.1147 7.62557 21.7412C6.95911 21.2608 6.3789 20.7277 5.97975 20.1054C5.86449 19.9271 5.8038 19.719 5.80511 19.5067C5.80654 19.3449 5.85216 19.1945 5.86855 19.0754C5.98759 19.2408 6.1166 19.3605 6.28125 19.5152C7.00473 20.2194 8.07248 20.7483 9.17017 20.9586C9.48308 21.0185 9.76107 21.0655 10.0704 21.0655C10.5387 21.0655 10.9714 20.8146 11.2465 20.5687L10.8153 20.0676C10.6763 20.1097 10.3883 20.1097 10.1987 20.1097C8.60493 20.1097 6.58205 19.0669 6.1166 17.8616C6.07027 17.7432 6.01467 17.6777 6.061 17.5679C6.10733 17.4567 6.16507 17.2222 6.19857 17.0062C6.29195 17.1131 6.4844 17.2749 6.72888 17.4325C7.32121 17.8124 8.45097 18.3384 8.67193 18.4767C9.24145 18.3127 9.66983 18.1217 10.0084 17.9464C10.4124 17.7342 10.8615 17.622 11.3178 17.6192C12.4825 17.6192 13.8211 18.2835 15.0784 18.9029L15.9366 18.5644C14.8211 17.7803 12.3934 16.6826 11.0441 16.6826C10.2479 16.6826 9.49948 17.2649 8.96631 17.2649C8.31198 17.2649 6.43735 16.3512 6.43735 15.5892C6.43735 15.0033 7.65051 14.6711 9.6014 14.4309C9.26197 14.9326 8.94263 15.4477 8.64413 15.9748L9.14094 16.2507C12.1967 11.8257 15.375 8.95245 18.0486 7.20185C19.0194 6.56533 19.2411 6.19397 19.5804 5.49971C20.4086 3.80685 21.1899 2.50531 22.5484 2.50531C23.1828 2.50531 23.701 2.86098 24.0567 3.30291L25.0403 3.59658L24.0446 4.27087L25.0624 4.67502C23.7345 5.04781 21.9197 6.33937 21.1856 8.23467C19.77 8.31023 19.0871 9.45568 18.6245 10.4158C18.3123 11.063 17.8162 11.3217 17.0928 11.8114L11.3064 15.8451L12.1026 15.9549L17.4484 12.3752C18.5027 11.6639 19.0045 11.1393 19.2568 10.6339C19.7529 9.64243 20.2868 8.9054 21.3353 8.9054C21.8506 8.9054 22.4023 9.12636 22.8435 9.54263L23.7808 9.84913L22.7573 10.475L23.6155 11.0017C21.1635 11.7701 19.6431 13.5271 18.76 16.8865L19.4107 17.034C19.7365 15.9213 20.0572 14.9014 20.6317 14.0011C22.053 13.9847 23.4914 13.9327 24.9035 13.9327C28.6712 13.9327 31.7989 14.0916 33.4868 14.5884L32.8895 13.5513C31.0833 13.2448 28.4631 13.0859 24.9035 13.0859C23.7095 13.0859 22.5007 13.1301 21.2996 13.1429C22.0744 12.3225 23.1906 11.6325 24.9092 11.0994L23.6896 10.4279L25.0439 9.67664L23.1985 8.99023C22.8756 8.70012 22.4743 8.43425 21.9696 8.30738C22.5598 6.4912 24.5734 5.42986 26.5029 4.69854L25.1515 4.14756L26.5151 3.40127L24.4159 2.73125C23.8678 2.08761 23.3396 1.79395 22.5299 1.79395C20.5833 1.79395 19.765 3.48467 18.9931 4.98295C18.5868 5.772 18.3294 6.10416 17.6388 6.55678C16.1419 7.53614 14.2331 9.03371 12.4112 10.9518C11.4589 10.2654 9.51444 8.25891 8.98556 7.16407C8.77742 7.42138 8.57143 7.98235 8.57143 7.98235C8.7703 8.19262 11.0619 10.507 11.913 11.4878L11.7205 11.7031C10.8131 11.8834 8.45453 12.1101 7.65194 12.001L7.20146 12.8008C7.80091 12.7416 10.1438 12.4658 11.1161 12.4087C10.8181 12.7697 10.5296 13.1383 10.2508 13.5143C7.2371 13.8564 5.22491 14.4744 5.22491 15.5878C5.22491 15.771 5.29832 15.9791 5.29832 16.1758C5.29832 16.642 5.1244 16.813 4.79296 17.0219C4.57699 17.1573 4.56344 17.2521 4.65539 17.3804C4.74805 17.5109 5.21279 18.198 5.21279 18.3334C5.21279 18.5558 4.99111 18.7803 4.81221 18.9792C4.65539 19.1545 4.66181 19.2009 4.78441 19.4218L5.65828 21.2786L6.58846 21.9501ZM43.897 11.6133C43.7046 11.8157 43.5349 12.0317 43.3924 12.2612L42.907 11.5798C44.5278 9.42003 48.8081 8.40646 51.3193 8.22826V7.06998C51.0006 7.16835 50.6571 7.27882 50.3392 7.35438C49.8887 7.46272 49.4753 7.56323 49.1246 7.55396C48.7739 7.54541 48.4895 7.40499 48.3583 7.21753C48.0212 6.7364 48.3341 6.00936 49.4375 5.32936L48.5672 4.60588C47.8958 5.47691 47.2343 6.43774 46.5614 7.01153C45.9498 7.53329 45.3091 7.79346 44.7916 7.40713C44.5129 7.199 44.4081 7.10419 44.3803 6.56105C44.4174 5.76344 44.9028 4.54458 45.3304 3.7598L44.3005 3.63863C44.1173 4.84039 43.6247 5.86537 43.0973 6.71074C42.4401 7.76566 41.5926 8.50553 40.7201 9.1114L40.1478 8.54759C40.852 8.13203 41.7337 7.45631 42.3403 6.5247C43.0438 5.44269 43.6148 4.10479 43.6155 2.88949L46.5949 3.17176C46.1765 3.7035 45.4858 4.91666 45.2235 5.78768C45.0874 6.24244 45.0938 6.60382 45.2584 6.72713C45.5742 6.96378 46.1273 6.586 46.6641 6.01078C47.421 5.1975 48.1623 3.97079 48.4895 3.53314L50.6442 5.32081C49.6863 5.82831 48.7582 6.4078 48.9428 6.73355C49.1118 7.03007 49.7255 6.94097 50.3976 6.73497C50.9543 6.56307 51.4903 6.32999 51.9957 6.04001V8.95245C50.9572 8.93819 49.198 9.13207 47.5037 9.64599C47.9064 10.2148 49.0633 10.4236 49.7982 10.5249L49.4297 12.8884C47.575 12.1094 46.1444 11.656 43.897 11.6133L44.6405 10.9746C46.297 11.0088 47.957 11.49 48.8979 11.9633L49.0326 11.0687C48.1851 10.9568 47.1174 10.475 46.6655 9.92896C45.9278 10.2062 45.2292 10.5519 44.6405 10.9746L43.897 11.6133Z" fill="black"/>
<path id="Vector_6" fill-rule="evenodd" clip-rule="evenodd" d="M35.0183 19.122L35.7083 17.6323C34.897 16.6725 34.1548 15.6563 33.4872 14.5916L32.8899 13.5545C31.51 10.9336 32.0125 9.68121 31.2762 8.52792C30.6675 7.57493 27.7108 8.16796 27.2205 8.27061L28.0758 6.8543L26.3901 6.9883L27.8185 5.29117C27.9746 5.0702 28.048 4.86849 28.2134 4.27973C28.4657 3.38518 29.2341 1.8584 31.4843 1.8584C33.9819 1.8584 34.756 3.87914 35.8451 4.75729C37.3322 5.95841 38.7671 7.22262 40.1461 8.54645L40.7184 9.11027C41.4562 9.86439 42.211 10.6399 42.9067 11.5786L43.3921 12.2601C46.3986 16.6494 50.1343 25.0396 51.7858 28.8822C51.9455 29.2535 52.0595 29.6313 52.1586 29.9179C50.9119 29.2235 49.7006 28.4675 48.5291 27.6526L47.7878 27.1309C47.3227 26.7957 46.8629 26.4533 46.4086 26.1038L45.6466 25.505C45.1882 25.1383 44.7365 24.7633 44.2916 24.3802L45.7949 33.1354C45.9054 33.6507 46.3459 33.5659 46.7015 33.1118C47.0572 32.6578 47.1919 32.5338 47.0572 31.9343L45.6466 25.505L46.4086 26.1038L47.7607 31.5665C47.8919 32.0591 48.1 32.2152 48.676 32.2401C49.2526 32.2651 49.3752 32.0441 49.2526 31.6649L47.7885 27.1309L48.5298 27.6526L49.9155 31.7248C50.2712 32.7676 49.9155 32.8902 49.2904 32.8902C48.6653 32.8902 48.1015 32.7426 47.7579 32.9643C47.415 33.1845 46.9845 33.7869 46.4699 34.315C46.0151 34.7798 45.3544 34.6586 45.2197 33.7861L43.5582 23.7345C42.4901 22.7792 41.4773 21.764 40.5246 20.6937C40.1 20.5109 39.6786 20.3206 39.2608 20.1228L38.6343 19.8305C38.4864 19.7595 38.3356 19.6945 38.1824 19.6359C37.7226 20.1884 37.2814 20.8042 36.7668 21.2454C36.4931 21.4806 36.3063 21.6146 35.9022 21.6146C35.7774 21.6146 35.6227 21.6132 35.4788 21.5312C35.3248 21.445 35.1801 21.2711 35.019 21.0259C34.8971 20.8391 34.7168 20.6011 34.5593 20.3366C34.2307 19.7856 33.8764 19.0935 33.5571 18.534C33.1993 17.9046 32.8914 17.4356 32.8493 17.3579C32.7852 17.2381 32.6105 17.0906 32.6105 17.0906C32.4352 17.3764 32.3062 17.9274 32.3062 18.2311L31.6811 18.0194C31.7637 17.6059 31.9298 17.0721 32.0211 16.8147C32.0211 16.5938 31.773 16.2994 31.5706 16.2994C31.2855 16.2994 30.9918 16.6123 30.8442 17.2103L30.2099 17.4862C30.284 16.5204 30.614 15.4633 31.5706 15.4633C32.3432 15.4633 32.8215 16.0521 33.1893 16.6038C33.5564 17.154 34.7617 18.8006 35.0183 19.122L35.4966 19.7279C35.58 20.1064 35.7404 20.3252 35.8181 20.4464C35.9841 20.7037 36.168 20.6859 36.4161 20.4549C36.5294 20.3509 36.8936 20.0544 37.2465 19.6866C37.553 19.3665 37.8509 18.9781 37.9707 18.7813C38.3214 18.9388 38.975 19.2518 39.501 19.4827C37.2436 16.7014 35.0825 13.3257 34.1451 11.0298C33.7574 10.0811 34.5151 9.76317 34.8807 10.6983C35.8744 13.2366 38.7797 17.7243 40.913 20.0772C43.3793 22.7986 47.9019 26.736 50.8442 28.3177C50.418 27.4851 49.8542 26.2905 49.2041 24.9056C45.6252 22.8813 42.0079 19.1641 40.3221 15.9708L41.0634 16.0563C42.633 18.8312 46.3808 22.5327 48.5954 23.609C46.5711 19.3131 43.9359 13.8681 41.8796 11.5259C39.3285 8.6213 36.543 6.3746 35.2122 5.20563C33.9007 4.05306 33.3604 2.60682 31.4722 2.60682C29.9148 2.60682 29.0965 3.72803 28.7843 4.85993C28.7194 5.08089 28.6831 5.21846 28.527 5.44798L27.7914 6.33112L29.3816 6.13796L28.4614 7.42525C28.4614 7.42525 30.9547 6.86571 31.8279 8.05036C32.7673 9.32767 32.1608 10.7618 33.7032 13.5495C34.3818 14.7748 36.0226 16.978 36.5715 17.4669L35.4959 19.7279L35.0183 19.122ZM10.5128 19.5076L10.1357 19.2518C10.4525 18.9976 10.8018 18.7869 11.1743 18.6252C11.3747 18.543 11.5885 18.4981 11.8051 18.4926C12.2278 18.4926 12.592 18.6694 12.9477 18.859C13.5101 19.1584 14.1416 19.5105 14.6256 19.5105C14.8095 19.5105 14.9877 19.467 15.1958 19.467C15.6748 19.467 16.1345 19.6816 16.3975 19.6816C16.5572 19.6816 16.6677 19.5383 16.7725 19.3879C17.0362 19.008 17.4004 18.7264 17.8659 18.5318C18.3655 18.323 18.9664 18.2396 19.62 18.2396C20.1347 18.2396 20.6286 18.3137 20.8859 18.3693C20.8859 18.3693 20.4932 18.8426 20.3948 18.9474C19.8752 18.9474 18.8852 18.9296 18.2494 19.1869C17.8588 19.3444 17.719 19.5711 17.719 19.8954C17.719 20.363 18.2422 20.5469 18.8253 20.7237C19.1688 20.8277 19.5545 20.8534 19.8795 20.8534C20.2801 20.8534 21.0477 20.703 21.8061 20.5362C22.7221 20.3345 23.5731 20.0936 23.8219 20.0016L24.1526 20.5961C23.1334 20.9411 22.0913 21.2682 21.124 21.465C20.5773 21.5761 20.0563 21.6446 19.5915 21.6446C18.8153 21.6446 17.9728 21.3188 17.28 20.9888C16.6955 20.7101 16.1744 20.435 15.7083 20.435C15.1844 20.435 14.6919 20.616 14.2064 20.8933C13.9691 21.0294 13.2527 21.5227 12.6148 21.7729C12.1251 21.9675 11.726 22.0751 11.2299 22.0751C10.7879 22.0751 10.5242 22.0124 10.2954 21.8342L11.0638 21.3637C11.1629 21.4614 11.3403 21.4792 11.4501 21.4792C11.5606 21.4792 11.6925 21.465 11.994 21.3402C12.1665 21.2675 12.4174 21.1136 12.5642 21.0188C12.8678 20.8227 12.9683 20.708 13.0881 20.6139C13.3205 20.43 13.406 20.1862 13.1095 19.9218C12.9643 19.7848 12.8063 19.6621 12.6376 19.5554C12.3717 19.3965 12.18 19.2411 11.6996 19.2411C11.1322 19.2389 10.7323 19.395 10.5128 19.5076Z" fill="black"/>
<path id="Vector_7" fill-rule="evenodd" clip-rule="evenodd" d="M21.2171 19.8132C21.2171 19.8132 20.7602 19.6863 20.6005 19.6742C20.8881 19.2927 21.236 18.9607 21.6305 18.6912C22.2542 18.2693 22.9071 18.0383 23.895 17.9784C24.1637 17.9621 24.7111 17.91 25.0169 17.9228C25.2928 17.9357 25.7589 17.9535 26.188 18.0326C26.4917 18.0896 26.7747 18.1745 27.0099 18.2108C27.1531 18.2329 27.6514 18.2258 27.8246 18.198C28.5238 18.0882 29.3635 17.8181 29.8054 17.5771L29.9893 18.2493C29.0449 18.7311 27.9778 19.1959 27.0013 19.1959C26.5038 19.1959 25.9756 19.1581 25.4831 19.1125C24.6149 19.0291 23.8636 18.9136 23.6049 18.9136C22.9021 18.9136 21.8907 19.2408 21.2171 19.8132ZM20.52 23.551L19.6318 23.1447C20.8635 22.521 22.7453 21.8959 23.5172 21.7719C24.2899 21.6507 25.173 21.5573 25.6812 21.3863C25.9143 21.975 26.3748 22.6044 27.037 22.6044C27.2786 22.6044 27.6756 22.4219 28.0748 22.2452C28.5231 22.0477 28.9736 21.8318 29.2067 21.727C29.459 21.6158 30.2773 21.2565 30.9708 20.9472C31.3178 20.7895 31.6626 20.6269 32.0051 20.4596L32.4712 20.712C32.3315 21.3243 32.0984 22.0777 31.8361 22.6165C31.7335 22.8282 31.6309 23.0022 31.5204 23.1276C31.3179 23.3557 30.9908 23.6593 30.5638 23.9616C30.0977 24.293 29.5296 24.6323 28.9266 24.978C28.4568 25.2496 27.9843 25.524 27.5053 25.7435L27.2565 25.2923C27.9949 24.8746 28.7455 24.3457 29.4055 23.8568C29.7177 23.6258 30.02 23.392 30.2359 23.1939C30.3963 23.0478 30.4968 22.9266 30.5767 22.8083C30.7727 22.5203 31.092 21.9565 31.1896 21.6864C30.9145 21.8211 29.8724 22.3129 29.4063 22.5567C28.8802 22.8339 28.027 23.268 27.5487 23.4947C27.1724 23.6715 26.8367 23.7691 26.5957 23.7691C26.0619 23.7691 25.8195 23.3849 25.6884 23.1525C25.3512 22.551 24.9898 22.4954 24.039 22.4832C22.9356 22.4697 21.4216 22.9259 20.52 23.551ZM25.7033 20.7783C25.7033 20.7783 25.5743 20.2537 25.513 20.0626C25.513 20.0626 25.6663 20.0127 25.8687 20.0127C26.1994 20.0127 27.017 20.1047 27.3563 20.1047C28.6336 20.1047 29.1047 19.7027 29.4797 19.3641C29.7997 19.0761 30.1283 18.8409 30.9972 18.8409C31.7634 18.8409 32.643 19.1503 32.8946 19.2721L32.8397 19.97C32.4259 19.7488 31.9653 19.6295 31.4961 19.6221C31.1797 19.6221 30.8946 19.6471 30.6935 19.7519C30.4676 19.8688 30.33 20.0441 30.1176 20.218C29.8924 20.4033 29.5837 20.583 29.1796 20.7319C28.7754 20.8809 28.2751 20.9828 27.5288 20.9828C26.5437 20.9814 26.0098 20.8168 25.7033 20.7783Z" fill="black"/>
<path id="Vector_8" fill-rule="evenodd" clip-rule="evenodd" d="M17.6133 26.0455L18.202 25.8017C18.7416 26.0105 19.5214 26.2472 20.0638 26.2472C20.3903 26.2472 20.6597 26.1303 20.8814 26.0312C21.0553 25.9535 23.0169 24.9913 23.9906 24.6377C24.2999 24.5265 24.6142 24.4638 24.7668 24.4638C24.9999 24.4638 25.0134 24.5679 25.079 24.6755C25.2629 24.9692 26.7113 27.0362 26.8581 27.1952C28.0862 26.8181 29.3443 26.265 30.0699 25.5693C30.8262 24.8401 31.4541 23.9962 32.0607 23.3433C32.2945 23.091 32.5839 22.8629 32.7272 22.7866C33.3551 22.4523 35.3081 22.4245 36.1293 22.4609L35.6424 23.1501C34.1955 23.1501 33.3858 23.2991 33.0215 23.5735C32.8676 23.689 32.6352 23.9228 32.4135 24.2115C31.9196 24.8558 31.38 25.7375 31.164 25.91C31.5874 26.2037 32.0507 26.461 32.7856 26.461C34.0116 26.461 34.8897 25.6941 35.3709 25.2607L35.7829 25.5059C35.4785 25.9015 35.13 26.3063 34.6859 26.6086C34.1934 26.9429 33.5725 27.1596 33.2054 27.2615C32.4941 27.1268 30.9274 26.8103 30.5603 26.7369C29.2053 27.2893 26.9985 28.1817 26.2572 28.4048C26.0933 28.4458 25.9261 28.4722 25.7576 28.4839C25.1716 28.516 24.3569 28.5117 23.6149 28.5032C23.0882 28.496 22.5899 28.4989 22.3398 28.4533L21.6861 27.7711C22.2628 27.8809 22.4873 27.9144 23.0262 27.9144C24.3013 27.9144 25.1218 27.7013 25.3926 27.6321C25.62 27.5737 25.6578 27.4425 25.59 27.2365C25.4824 26.9094 25.2935 26.5986 25.0063 26.2664C24.8101 26.0527 24.5946 25.8576 24.3626 25.6834C24.1873 25.5636 24.0162 25.533 23.5351 25.6976C23.0889 25.8494 21.7047 26.5986 21.1081 26.9158C20.813 27.0733 20.5835 27.1189 20.0539 26.9935C19.4929 26.8616 18.1514 26.3712 17.6133 26.0455ZM21.4516 10.6828C21.5849 10.6828 21.7127 10.6298 21.807 10.5356C21.9012 10.4413 21.9541 10.3135 21.9541 10.1803C21.9541 10.047 21.9012 9.91916 21.807 9.82492C21.7127 9.73068 21.5849 9.67773 21.4516 9.67773C21.3184 9.67773 21.1905 9.73068 21.0963 9.82492C21.0021 9.91916 20.9491 10.047 20.9491 10.1803C20.9491 10.3135 21.0021 10.4413 21.0963 10.5356C21.1905 10.6298 21.3184 10.6828 21.4516 10.6828Z" fill="black"/>
</g>
</svg>
