<svg width="142" height="35" viewBox="0 0 142 35" fill="none" xmlns="http://www.w3.org/2000/svg">
<g id="Walmart_logo 2">
<g id="Group">
<g id="Group_2">
<path id="Vector" d="M1.53613 7.64644C1.53613 7.64644 4.98891 21.7949 5.53996 24.0915C6.18313 26.7719 7.34202 27.7584 10.6833 27.0931L12.8393 18.3211C13.3857 16.1422 13.7522 14.5888 14.1035 12.3723H14.1653C14.4121 14.6106 14.7635 16.1488 15.2132 18.3288C15.2132 18.3288 16.0909 22.311 16.5403 24.4026C16.9909 26.4935 18.245 27.8113 21.5178 27.0939L26.655 7.64793H22.5073L20.7535 16.0553C20.282 18.5026 19.8541 20.4148 19.5242 22.6536H19.4657C19.1659 20.4371 18.7846 18.6007 18.3052 16.2163L16.479 7.64793H12.1575L10.2042 16.0004C9.65079 18.5385 9.1332 20.5881 8.80406 22.751H8.74445C8.40738 20.7141 7.95842 18.1382 7.47226 15.6813C7.47226 15.6813 6.31174 9.70716 5.90457 7.64793L1.53654 7.64849L1.53613 7.64644ZM41.0756 7.64644V27.0924H45.0246V22.9631V7.64551H41.0756V7.64644ZM96.6926 7.64644V21.992C96.6926 23.9699 97.0648 25.3557 97.8612 26.2022C98.5569 26.9427 99.7029 27.4221 101.076 27.4221C102.244 27.4221 103.392 27.2007 103.934 26.999L103.883 23.913C103.48 24.0122 103.017 24.0915 102.383 24.0915C101.038 24.0915 100.586 23.23 100.586 21.4541V15.9655H104.026V12.2449H100.586V7.64649H96.6924L96.6926 7.64644ZM32.2506 12.1544C29.7965 12.1544 27.8483 12.8435 26.7864 13.4571L27.5636 16.1182C28.5354 15.5055 30.0828 14.9983 31.548 14.9983C33.9739 14.9921 34.3705 16.37 34.3705 17.2537V17.4627C29.0846 17.4548 25.7457 19.2839 25.7457 23.0123C25.7457 25.2887 27.4454 27.422 30.4009 27.422C32.2202 27.422 33.7418 26.6964 34.6537 25.5338H34.7431C34.7431 25.5338 35.347 28.0587 38.6738 27.0932C38.4991 26.0423 38.4423 24.9219 38.4423 23.5725V18.3776C38.4423 15.0666 37.0286 12.1545 32.2506 12.1545L32.2506 12.1544ZM55.8727 12.1544C53.4016 12.1544 52.2911 13.4067 51.6178 14.4692H51.5593V12.4842H47.7907V27.0933H51.7607V18.5257C51.7607 18.124 51.8066 17.6993 51.9468 17.3298C52.2757 16.4672 53.0782 15.4582 54.3596 15.4582C55.9614 15.4582 56.711 16.8124 56.711 18.7669V27.0932H60.6767V18.4219C60.6767 18.0384 60.7293 17.5766 60.8421 17.2376C61.1681 16.2564 62.0333 15.458 63.2244 15.458C64.8483 15.458 65.6277 16.7887 65.6277 19.0885V27.0932H69.5962V18.4889C69.5962 13.9511 67.292 12.1545 64.6911 12.1545C63.5392 12.1545 62.63 12.4433 61.808 12.948C61.117 13.372 60.4985 13.9744 59.9578 14.7676H59.8993C59.2703 13.1931 57.7945 12.1545 55.872 12.1545L55.8727 12.1544ZM77.6728 12.1544C75.2193 12.1544 73.2715 12.8435 72.2087 13.4571L72.9869 16.1182C73.9578 15.5055 75.5062 14.9983 76.9706 14.9983C79.3948 14.9921 79.7923 16.37 79.7923 17.2537V17.4627C74.5071 17.4548 71.1679 19.2839 71.1679 23.0123C71.1679 25.2887 72.8685 27.422 75.8255 27.422C77.6434 27.422 79.1655 26.6964 80.0757 25.5338H80.1655C80.1655 25.5338 80.7693 28.0587 84.0966 27.0932C83.9215 26.0423 83.8654 24.9219 83.8654 23.5725V18.3776C83.8654 15.0666 82.4513 12.1545 77.6728 12.1545L77.6728 12.1544ZM94.159 12.1544C92.6388 12.1544 90.9092 13.1357 90.1833 15.2393H90.0724V12.484H86.4987V27.0931H90.5726V19.6123C90.5726 19.2088 90.5971 18.8569 90.661 18.5342C90.9623 16.9672 92.1609 15.9654 93.8811 15.9654C94.3534 15.9654 94.6913 16.0166 95.057 16.0694V12.2448C94.7504 12.1828 94.5407 12.1543 94.1592 12.1543L94.159 12.1544ZM34.498 20.0515V21.874C34.498 22.1436 34.4745 22.4218 34.3999 22.665C34.0942 23.6772 33.0457 24.5325 31.7349 24.5325C30.642 24.5325 29.7739 23.9123 29.7739 22.6002C29.7739 20.5933 31.9831 20.0385 34.4981 20.0515H34.498ZM79.9202 20.0515V21.874C79.9202 22.1436 79.8963 22.4218 79.8221 22.665C79.5165 23.6772 78.4683 24.5325 77.1575 24.5325C76.0644 24.5325 75.1961 23.9123 75.1961 22.6002C75.1961 20.5933 77.4053 20.0385 79.9203 20.0515H79.9202Z" fill="black"/>
<path id="Vector_2" d="M125.377 0.614258C124.102 0.614258 123.089 1.32619 123.089 2.19289L123.863 10.9598C123.949 11.488 124.596 11.8954 125.378 11.8954C126.162 11.8944 126.806 11.4873 126.894 10.9598L127.672 2.19289C127.672 1.32627 126.656 0.614332 125.379 0.614332L125.377 0.614258ZM112.76 7.64668C112.098 7.66238 111.346 8.16348 110.868 8.99268C110.229 10.0968 110.342 11.3307 111.09 11.7636L119.069 15.4792C119.567 15.6646 120.244 15.3107 120.636 14.6349C120.636 14.6348 120.636 14.6346 120.636 14.6345C121.03 13.9553 121 13.1917 120.585 12.853L113.379 7.79873C113.192 7.69033 112.981 7.64155 112.761 7.64679L112.76 7.64668ZM137.994 7.64668C137.774 7.64144 137.564 7.69022 137.377 7.79862L130.17 12.8529C129.758 13.1916 129.727 13.9553 130.119 14.6344L130.119 14.6347C130.513 15.3106 131.187 15.6645 131.686 15.4791L139.668 11.7637C140.42 11.3308 140.527 10.097 139.892 8.99275C139.412 8.16353 138.658 7.66246 137.997 7.64675L137.994 7.64668ZM119.367 19.2134C119.264 19.212 119.164 19.228 119.07 19.2632L111.091 22.9744C110.343 23.4091 110.23 24.6435 110.869 25.7488C111.507 26.8508 112.631 27.3747 113.379 26.9425L120.586 21.8922C121.001 21.5493 121.031 20.7859 120.637 20.1074L120.641 20.1089C120.322 19.5563 119.814 19.2194 119.367 19.2133L119.367 19.2134ZM131.391 19.2134C130.944 19.2195 130.438 19.5564 130.118 20.109L130.121 20.1076C129.729 20.786 129.759 21.5494 130.172 21.8923L137.379 26.9427C138.126 27.3748 139.251 26.8509 139.891 25.749C140.527 24.6436 140.419 23.4092 139.667 22.9745L131.688 19.2633C131.594 19.2281 131.494 19.2121 131.391 19.2135L131.391 19.2134ZM125.376 22.8468C124.595 22.8477 123.95 23.2534 123.864 23.7802L123.09 32.5468C123.09 33.4149 124.103 34.1254 125.378 34.1254C126.656 34.1254 127.671 33.4149 127.671 32.5468L126.895 23.7802C126.807 23.2534 126.163 22.8478 125.379 22.8468H125.376H125.376Z" fill="black"/>
</g>
</g>
</g>
</svg>
