<svg width="17" height="17" viewBox="0 0 17 17" fill="none" xmlns="http://www.w3.org/2000/svg">
<g id="fire 1">
<path id="Vector" fill-rule="evenodd" clip-rule="evenodd" d="M7.1862 1.24542C6.96545 1.36347 6.85689 1.57759 6.83365 1.81977C6.82364 1.93692 6.80861 2.05324 6.78817 2.16909C6.7448 2.41499 6.66262 2.76247 6.50863 3.15542C6.20147 3.93927 5.61409 4.89284 4.4805 5.6013C2.88299 6.59971 2.29042 8.84307 2.54364 10.8513C2.80216 12.9017 3.97307 15.0269 6.28977 15.7991C6.5206 15.8761 6.77502 15.8211 6.95355 15.6558C7.172 15.4535 7.18313 15.1855 7.12761 14.9149C7.08687 14.7163 7.00059 14.219 7.00059 13.625C7.00059 13.4328 7.00948 13.2356 7.03002 13.0379C7.38607 13.854 7.86873 14.4492 8.35113 14.8749C9.06873 15.5081 9.74687 15.7383 9.94873 15.7977C10.1019 15.8429 10.2647 15.8457 10.4147 15.7856C12.1861 15.0771 13.3013 14.1155 13.9243 13.0161C14.5459 11.9192 14.6335 10.7626 14.4944 9.7432C14.3561 8.72907 13.9909 7.82327 13.6697 7.181C13.4269 6.69528 13.2029 6.34727 13.1001 6.19495C12.974 6.00827 12.8097 5.86417 12.5758 5.83757C12.3894 5.81637 12.2027 5.87471 12.0615 5.99826L11.0181 6.91124C11.1077 5.46321 10.5983 4.24664 9.96607 3.32981C9.50693 2.66406 8.98307 2.15275 8.57733 1.80903C8.37353 1.63632 8.1968 1.50366 8.06893 1.41282C8.00487 1.36735 7.95287 1.33221 7.91553 1.30761C7.69447 1.16194 7.42933 1.11542 7.1862 1.24542ZM5.67657 14.004C5.67067 13.8829 5.66726 13.7561 5.66726 13.625C5.66727 12.9231 5.76511 12.0373 6.15261 11.2139C6.28241 10.9381 6.44469 10.6693 6.64669 10.4169C6.81665 10.2044 7.09866 10.1165 7.3592 10.1949C7.61973 10.2732 7.8066 10.502 7.8312 10.7729C7.982 12.4318 8.64893 13.3595 9.23327 13.8751C9.53187 14.1386 9.81993 14.3037 10.0286 14.4017C10.8339 14.4999 12.4239 12.9595 12.7643 12.3588C13.2052 11.5807 13.2843 10.7373 13.1733 9.9234C13.0437 8.9728 12.6542 8.09313 12.3443 7.52247L10.2729 9.335C10.0361 9.54226 9.6866 9.55567 9.4346 9.3672C9.1826 9.17867 9.09673 8.83967 9.2286 8.55393C10.106 6.65289 9.60393 5.15325 8.86847 4.08679C8.57647 3.66347 8.24787 3.31099 7.95393 3.03797C7.90053 3.22533 7.83373 3.42841 7.75007 3.64189C7.63127 3.94503 7.47807 4.27021 7.28087 4.60125C6.83927 5.34253 6.17715 6.11325 5.18715 6.73198C4.21895 7.33707 3.64491 8.92707 3.8665 10.6845C4.03356 12.0095 4.63554 13.2496 5.67657 14.004Z" fill="#B55D51" fill-opacity="0.972549"/>
</g>
</svg>
