<svg width="244" height="25" viewBox="0 0 244 25" fill="none" xmlns="http://www.w3.org/2000/svg">
<g id="Social Media Icon">
<path id="Vector" d="M168.899 0.0517578C165.223 0.0517578 162.232 3.04242 162.232 6.71842V17.3851C162.232 21.0611 165.223 24.0518 168.899 24.0518H179.566C183.242 24.0518 186.232 21.0611 186.232 17.3851V6.71842C186.232 3.04242 183.242 0.0517578 179.566 0.0517578H168.899ZM168.899 2.71842H179.566C181.771 2.71842 183.566 4.51309 183.566 6.71842V17.3851C183.566 19.5904 181.771 21.3851 179.566 21.3851H168.899C166.694 21.3851 164.899 19.5904 164.899 17.3851V6.71842C164.899 4.51309 166.694 2.71842 168.899 2.71842ZM180.899 4.05176C180.545 4.05176 180.206 4.19223 179.956 4.44228C179.706 4.69233 179.566 5.03147 179.566 5.38509C179.566 5.73871 179.706 6.07785 179.956 6.3279C180.206 6.57795 180.545 6.71842 180.899 6.71842C181.253 6.71842 181.592 6.57795 181.842 6.3279C182.092 6.07785 182.232 5.73871 182.232 5.38509C182.232 5.03147 182.092 4.69233 181.842 4.44228C181.592 4.19223 181.253 4.05176 180.899 4.05176ZM174.232 5.38509C170.556 5.38509 167.566 8.37576 167.566 12.0518C167.566 15.7278 170.556 18.7184 174.232 18.7184C177.908 18.7184 180.899 15.7278 180.899 12.0518C180.899 8.37576 177.908 5.38509 174.232 5.38509ZM174.232 8.05176C176.438 8.05176 178.232 9.84643 178.232 12.0518C178.232 14.2571 176.438 16.0518 174.232 16.0518C172.027 16.0518 170.232 14.2571 170.232 12.0518C170.232 9.84643 172.027 8.05176 174.232 8.05176Z" fill="black"/>
<path id="Vector_2" d="M131 8.45181H125.641V6.05181C125.641 4.81342 125.769 4.03342 128.017 4.03342H130.857V0.217432C129.475 0.104633 128.086 0.0494328 126.695 0.0518328C122.571 0.0518328 119.561 2.04023 119.561 5.69061V8.45181H115V13.2518L119.561 13.2506V24.0518H125.641V13.2482L130.302 13.247L131 8.45181Z" fill="black"/>
<path id="Vector_3" d="M57.6855 0.0517578L66.417 13.5726L58.1446 24.0518H61.3939L67.871 15.8252L73.1824 24.0518H81.6855L72.5528 9.88509L80.294 0.0517578H77.0951L71.1035 7.63509L66.2151 0.0517578H57.6855ZM62.4106 2.71842H64.9317L76.9629 21.3851H74.4634L62.4106 2.71842Z" fill="black"/>
<path id="Vector_4" d="M4 0.0517578C1.80671 0.0517578 0 1.85846 0 4.05176V20.0518C0 22.2451 1.80671 24.0518 4 24.0518H20C22.1933 24.0518 24 22.2451 24 20.0518V4.05176C24 1.85846 22.1933 0.0517578 20 0.0517578H4ZM4 2.71842H20C20.7534 2.71842 21.3333 3.29838 21.3333 4.05176V20.0518C21.3333 20.8051 20.7534 21.3851 20 21.3851H4C3.24663 21.3851 2.66667 20.8051 2.66667 20.0518V4.05176C2.66667 3.29838 3.24663 2.71842 4 2.71842ZM12 5.38509V14.7184C12 15.4718 11.42 16.0518 10.6667 16.0518C9.91329 16.0518 9.33333 15.4718 9.33333 14.7184C9.33333 13.9651 9.91329 13.3851 10.6667 13.3851V10.7184C8.47337 10.7184 6.66667 12.5251 6.66667 14.7184C6.66667 16.9117 8.47337 18.7184 10.6667 18.7184C12.86 18.7184 14.6667 16.9117 14.6667 14.7184V9.69499C15.4882 10.2802 16.3455 10.7184 17.3333 10.7184V8.05176C17.2702 8.05176 16.3502 7.75967 15.7083 7.2002C15.0664 6.64072 14.6667 5.93841 14.6667 5.38509H12Z" fill="black"/>
<path id="Vector_5" d="M231.902 0.0517578C225.275 0.0517578 219.902 5.42416 219.902 12.0518C219.902 18.6794 225.275 24.0518 231.902 24.0518C238.53 24.0518 243.902 18.6794 243.902 12.0518C243.902 5.42416 238.53 0.0517578 231.902 0.0517578ZM231.902 2.45176C237.204 2.45176 241.502 6.75016 241.502 12.0518C241.502 17.3534 237.204 21.6518 231.902 21.6518C231.02 21.6518 230.169 21.5233 229.357 21.3002C229.612 20.7857 229.841 20.2435 229.966 19.7627C230.104 19.2347 230.67 17.0814 230.67 17.0814C231.037 17.7822 232.11 18.3775 233.252 18.3775C236.652 18.3775 239.102 15.2506 239.102 11.365C239.102 7.63904 236.063 4.85176 232.151 4.85176C227.285 4.85176 224.702 8.11761 224.702 11.6744C224.702 13.328 225.582 15.3868 226.99 16.0432C227.203 16.1428 227.318 16.0996 227.367 15.8932C227.406 15.736 227.596 14.9699 227.681 14.6135C227.709 14.5007 227.696 14.4016 227.604 14.29C227.138 13.7248 226.765 12.6873 226.765 11.7189C226.765 9.23135 228.648 6.8252 231.855 6.8252C234.625 6.8252 236.564 8.71311 236.564 11.4119C236.564 14.4611 235.024 16.5729 233.02 16.5729C231.914 16.5729 231.083 15.6593 231.349 14.5361C231.667 13.1957 232.284 11.7486 232.284 10.7814C232.284 9.91625 231.822 9.19473 230.859 9.19473C229.728 9.19473 228.818 10.3638 228.818 11.9322C228.818 12.9306 229.155 13.6057 229.155 13.6057C229.155 13.6057 228.039 18.33 227.834 19.2096C227.732 19.6437 227.698 20.1579 227.695 20.6721C224.505 19.1115 222.302 15.8421 222.302 12.0518C222.302 6.75016 226.601 2.45176 231.902 2.45176Z" fill="black"/>
</g>
</svg>
